:SAMPLES-PER-SECOND 30
:FULLY-SPECIFIED
:DEGREES
489
root  42.3938 38.2581 10.0564 -42.7329 85.8083 -34.8564
RightUpLeg  10.408 -10.5684 -0.107486
RightLeg  18.5088 -0.264145 0.287601
RightFoot  -18.7415 -0.238698 -1.72309
RightToes  -6.98493e-010 0 -3.6325e-017
Spine  8.61105 -0.413903 13.9954
Spine1  9.7532 2.70665 -8.35997
HEad  -9.49388 2.32148 -5.01461
LeftShoulder1  0.445155 2.22786 -28.7328
LeftArm  7.03562 -17.1323 -43.3909
LeftForeArm  10.8393 -20.4273 -5.29436
LeftHand  -0.0949969 3.00847 4.05399
RightShoulder  0.180204 -2.80878 20.4055
RightArm  8.47188 35.8705 49.2094
RightForeArm  -8.13912 24.7726 5.62232
RightHand  -1.0667 7.4895 -9.93664
LeftUpLeg  -17.3495 6.98261 2.29719
LeftLeg  5.59389 5.19709 -0.605332
LeftFoot  -1.91506 0.524674 -6.22448
LeftToes  7.91257e-010 -1.64976e-010 -3.02228e-011
490
root  43.5947 38.0118 10.3396 -52.9205 85.6262 -44.9249
RightUpLeg  13.0449 -10.6132 0.6962
RightLeg  17.8759 -0.913931 0.133268
RightFoot  -20.2872 -0.285307 -1.88926
RightToes  -6.98493e-010 0 -3.6325e-017
Spine  8.63574 -0.284342 13.7696
Spine1  9.90657 2.77714 -8.27376
HEad  -10.5749 2.42206 -4.59411
LeftShoulder1  0.391562 2.39442 -29.0863
LeftArm  4.83608 -18.4062 -42.2841
LeftForeArm  10.782 -26.7427 -5.02496
LeftHand  -0.103267 3.05138 4.45768
RightShoulder  0.196614 -2.74741 20.4221
RightArm  3.08454 35.9904 48.5621
RightForeArm  -4.43785 35.0699 8.17719
RightHand  -1.1353 8.06718 -10.1233
LeftUpLeg  -16.8299 4.75913 3.24114
LeftLeg  -1.92698 8.2035 -1.16102
LeftFoot  -1.67147 0.50976 -5.90881
LeftToes  7.91257e-010 -1.64976e-010 -3.02228e-011
491
root  44.8676 37.658 10.5899 -62.7534 85.5421 -54.7848
RightUpLeg  15.2066 -11.0658 1.19131
RightLeg  18.2502 -1.2504 -0.0453804
RightFoot  -22.3614 -0.30293 -1.58894
RightToes  -6.98493e-010 0 -3.6325e-017
Spine  7.27905 0.0908677 13.1907
Spine1  11.7237 2.98724 -7.79132
HEad  -12.8034 1.96021 -4.35284
LeftShoulder1  0.55086 1.91136 -28.7756
LeftArm  -0.663096 -20.2949 -41.9199
LeftForeArm  13.1015 -32.7797 -6.50352
LeftHand  -0.144313 2.471 5.32477
RightShoulder  0.224686 -2.64557 20.4711
RightArm  -1.21238 36.1995 48.2686
RightForeArm  0.234071 45.8478 11.5304
RightHand  -1.16641 7.62419 -10.7168
LeftUpLeg  -17.5618 4.49616 3.18397
LeftLeg  -4.26968 8.02374 -1.02597
LeftFoot  -2.06153 0.540406 -6.48963
LeftToes  7.91257e-010 -1.64976e-010 -3.02228e-011
492
root  46.2149 37.2266 10.8117 -75.2975 85.6674 -67.3173
RightUpLeg  17.4602 -11.9712 1.27321
RightLeg  18.9961 -1.22825 -0.175445
RightFoot  -24.6018 -0.238756 -0.612755
RightToes  -6.98493e-010 0 -3.6325e-017
Spine  5.81051 0.0427011 13.2119
Spine1  13.484 3.34716 -9.19676
HEad  -13.7917 1.69603 -2.51592
LeftShoulder1  0.778313 1.10086 -26.0807
LeftArm  -4.9163 -22.1877 -42.7251
LeftForeArm  14.2834 -38.1383 -7.92265
LeftHand  -0.197564 1.71759 6.0776
RightShoulder  0.220971 -2.71214 22.4106
RightArm  -2.93537 37.6571 48.1517
RightForeArm  6.66126 54.4283 15.346
RightHand  -1.17164 7.09823 -11.2045
LeftUpLeg  -19.2861 4.19783 2.90108
LeftLeg  -0.886628 5.85939 -0.545722
LeftFoot  -2.57124 0.450532 -5.50589
LeftToes  7.91257e-010 -1.64976e-010 -3.02228e-011
493
root  47.6533 36.8496 11.0205 -74.7112 85.9968 -66.7165
RightUpLeg  19.6349 -12.2463 0.6418
RightLeg  19.9678 -0.987027 -0.405644
RightFoot  -26.1297 -0.0837494 0.714187
RightToes  -6.98493e-010 0 -3.6325e-017
Spine  7.35656 0.439149 11.3866
Spine1  11.3903 3.51871 -8.56345
HEad  -13.416 1.82337 -2.17284
LeftShoulder1  0.579862 1.72591 -26.7246
LeftArm  -5.74617 -24.9157 -41.9265
LeftForeArm  15.1994 -42.9294 -9.39124
LeftHand  -0.215452 1.47061 6.24625
RightShoulder  0.224685 -2.66004 21.6734
RightArm  -3.65808 37.4793 49.0033
RightForeArm  13.2682 60.9579 19.4221
RightHand  -1.13441 6.01436 -11.8156
LeftUpLeg  -21.0096 4.37025 2.18539
LeftLeg  4.88418 4.7944 -0.234207
LeftFoot  -0.231623 0.152217 -2.29756
LeftToes  7.91257e-010 -1.64976e-010 -3.02228e-011
494
root  49.0243 36.5513 11.1212 -61.7923 86.7919 -53.7637
RightUpLeg  20.6569 -11.5983 -0.971887
RightLeg  22.9256 -0.128316 -0.302063
RightFoot  -27.1412 0.335488 3.69842
RightToes  -6.98493e-010 0 -3.6325e-017
Spine  6.97636 1.0716 8.01977
Spine1  12.779 3.59386 -6.83558
HEad  -14.1137 2.48213 -2.56143
LeftShoulder1  0.361996 2.45406 -28.5274
LeftArm  -7.34849 -29.0838 -40.8427
LeftForeArm  16.1976 -45.8748 -10.4028
LeftHand  -0.263059 0.74101 6.54277
RightShoulder  0.430752 -1.82994 19.5336
RightArm  -4.14228 39.1472 50.5967
RightForeArm  16.4661 63.5643 21.7013
RightHand  -1.14657 5.791 -12.1785
LeftUpLeg  -22.7941 5.37913 0.521584
LeftLeg  10.2975 4.04231 0.207118
LeftFoot  7.67777 -0.61421 3.68428
LeftToes  7.91257e-010 -1.64976e-010 -3.02228e-011
495
root  50.3957 36.1634 11.2393 -30.5818 88.3595 -22.5497
RightUpLeg  19.7795 -11.6456 -3.65182
RightLeg  30.1248 1.34807 0.644726
RightFoot  -27.2129 1.02603 8.71961
RightToes  -6.98493e-010 0 -3.6325e-017
Spine  8.77381 1.64197 5.48128
Spine1  10.7054 4.04517 -7.33302
HEad  -14.2856 1.8786 -1.00742
LeftShoulder1  0.64214 1.55298 -26.658
LeftArm  -8.04735 -31.811 -41.7961
LeftForeArm  16.4995 -47.0494 -10.8504
LeftHand  -0.294563 0.506391 7.01328
RightShoulder  0.310124 -2.30802 20.0781
RightArm  -3.79072 40.5312 50.499
RightForeArm  15.4366 63.6254 21.9308
RightHand  -1.16573 5.14467 -13.0728
LeftUpLeg  -24.8299 6.56227 -1.6782
LeftLeg  16.8409 2.03956 0.857105
LeftFoot  11.8546 -0.65519 2.82916
LeftToes  7.91257e-010 -1.64976e-010 -3.02228e-011
496
root  51.6538 35.8526 11.2801 49.6647 89.3404 58.1549
RightUpLeg  17.0163 -12.7651 -7.52378
RightLeg  41.2017 3.20581 2.72262
RightFoot  -22.761 1.38754 15.8521
RightToes  -6.98493e-010 0 -3.6325e-017
Spine  10.8988 1.64715 2.1047
Spine1  9.74098 3.47858 -6.64651
HEad  -14.0407 2.06542 -0.798112
LeftShoulder1  0.668084 1.46171 -26.6624
LeftArm  -8.56084 -35.5864 -41.3995
LeftForeArm  15.8539 -46.6045 -10.7226
LeftHand  -0.311914 0.534828 7.46316
RightShoulder  0.420187 -1.81019 18.5185
RightArm  -3.43082 42.2639 51.3346
RightForeArm  12.366 61.4352 20.0683
RightHand  -1.13896 5.55895 -12.3621
LeftUpLeg  -25.9545 5.63114 -3.66372
LeftLeg  23.2451 1.42637 1.0385
LeftFoot  10.5938 -1.06188 5.15673
LeftToes  7.91257e-010 -1.64976e-010 -3.02228e-011
497
root  52.6886 35.7268 11.1811 78.6016 87.5464 86.5402
RightUpLeg  9.54786 -11.8192 -10.6103
RightLeg  54.7687 3.61976 5.12608
RightFoot  -10.4154 -0.0942514 17.9513
RightToes  -6.98493e-010 0 -3.6325e-017
Spine  13.2314 1.56085 1.85252
Spine1  7.6217 4.01182 -10.2314
HEad  -13.996 1.71374 0.0960873
LeftShoulder1  0.852841 0.717492 -24.3184
LeftArm  -9.32695 -38.1876 -41.8278
LeftForeArm  15.2917 -45.5024 -10.3288
LeftHand  -0.318638 0.556755 7.68533
RightShoulder  0.48507 -1.54056 18.4326
RightArm  -2.47404 44.5585 51.1224
RightForeArm  6.96529 57.5518 17.3761
RightHand  -1.35973 8.09929 -11.9915
LeftUpLeg  -26.9292 5.98405 -5.60587
LeftLeg  27.194 1.6072 1.2471
LeftFoot  8.7193 -1.4438 7.84304
LeftToes  7.91257e-010 -1.64976e-010 -3.02228e-011
498
root  53.5404 35.633 11.1252 62.1346 86.1544 70.2244
RightUpLeg  1.41161 -9.12933 -12.2601
RightLeg  66.7484 3.16566 7.33822
RightFoot  2.20548 -1.62612 13.3851
RightToes  -6.98493e-010 0 -3.6325e-017
Spine  15.7503 1.78355 1.08313
Spine1  7.2287 4.37369 -11.554
HEad  -15.1774 1.97476 -0.41044
LeftShoulder1  0.956675 0.256587 -23.1663
LeftArm  -11.4205 -41.7172 -41.2852
LeftForeArm  14.8118 -44.0353 -9.8223
LeftHand  -0.290049 1.26892 8.09543
RightShoulder  0.590076 -0.980526 16.9117
RightArm  -2.87946 48.3086 50.9003
RightForeArm  3.67445 52.9647 14.7092
RightHand  -1.15062 7.61978 -10.5852
LeftUpLeg  -26.8557 7.17867 -6.74734
LeftLeg  30.2292 1.72091 1.44278
LeftFoot  5.99389 -1.35709 8.63719
LeftToes  7.91257e-010 -1.64976e-010 -3.02228e-011
499
root  54.2896 35.6029 11.1178 73.2235 86.0848 81.4109
RightUpLeg  -4.97375 -8.02341 -12.9555
RightLeg  74.3566 2.14226 7.6331
RightFoot  1.80301 -1.39994 12.1917
RightToes  -6.98493e-010 0 -3.6325e-017
Spine  17.8591 1.25351 0.431084
Spine1  7.43791 3.73314 -11.8371
HEad  -16.5777 2.89812 -0.872152
LeftShoulder1  1.08676 -0.378394 -21.63
LeftArm  -14.2382 -45.6801 -40.2457
LeftForeArm  14.3585 -41.356 -8.91965
LeftHand  -0.319922 0.711859 7.92741
RightShoulder  0.725755 -0.21351 15.3665
RightArm  -4.04106 52.629 49.9703
RightForeArm  1.11238 47.8081 12.3127
RightHand  -0.928749 6.96041 -9.03047
LeftUpLeg  -26.6947 7.28964 -7.13966
LeftLeg  32.6552 1.29899 1.26842
LeftFoot  3.8474 -1.21259 8.89355
LeftToes  7.91257e-010 -1.64976e-010 -3.02228e-011
500
root  54.9836 35.7454 11.1573 70.8694 86.3128 78.8542
RightUpLeg  -11.4477 -6.36352 -12.8992
RightLeg  78.0991 1.39926 6.42439
RightFoot  0.0417029 -1.14753 11.4955
RightToes  -6.98493e-010 0 -3.6325e-017
Spine  19.9686 1.03925 0.509796
Spine1  7.17723 3.58465 -12.1882
HEad  -18.2321 3.69896 -1.26714
LeftShoulder1  1.20898 -1.05315 -20.0516
LeftArm  -16.897 -49.1946 -38.8499
LeftForeArm  13.4386 -38.632 -8.11941
LeftHand  -0.32644 1.01247 8.6059
RightShoulder  0.824249 0.508167 13.7223
RightArm  -6.91788 56.381 47.9565
RightForeArm  -0.155884 42.6736 10.3297
RightHand  -0.676591 6.11514 -7.19019
LeftUpLeg  -26.0846 8.34722 -6.78467
LeftLeg  33.4874 0.59481 0.804516
LeftFoot  2.28511 -1.07666 8.87797
LeftToes  7.91257e-010 -1.64976e-010 -3.02228e-011
